<?xml version="1.0" encoding="UTF-8"?>
<svg id="Layer_1" data-name="Layer 1" xmlns="http://www.w3.org/2000/svg" viewBox="0 0 2200 2400">
  <defs>
    <style>
      .cls-1 {
        letter-spacing: -.02em;
      }

      .cls-2 {
        letter-spacing: -.09em;
      }

      .cls-3 {
        fill: none;
      }

      .cls-3, .cls-4 {
        isolation: isolate;
      }

      .cls-5 {
        letter-spacing: -.13em;
      }

      .cls-6 {
        fill: #f2f5f4;
      }

      .cls-7 {
        fill: #da2500;
      }

      .cls-8 {
        fill: rgba(174, 177, 158, .5);
      }

      .cls-4 {
        font-family: ArialMT, Arial;
        font-size: 32px;
      }

      .cls-9 {
        letter-spacing: -.06em;
      }

      .cls-10 {
        letter-spacing: -.11em;
      }
    </style>
  </defs>
  <path class="cls-8" d="m540,2157l232,221,186-262-62-61-145,159-144-132-67,75Zm-212-198l206,192,73-82,141,128,140-153-308-300-65,57-39,6-93,110-55,42Zm-265-239l254,231,55-41,99-113,39-6,64-55-204-193-52,37-255,140Zm-51-294l8,252,36,34,255-141-83-70-10-67,34-4-12-14-31,2-41-15-156,23Zm-4-107l3,96,160-23,42,16,20-2-136-117-6-15-13-4-70,49Zm-7-173l6,163,71-50,18,6,44-49-120-111-19,41Zm690,686l273,272,21-26-2-34,25-4,184-242-110-110-36,38-70-72-104-5-181,183Zm-278-266l269,259,99-99-74-68,50-76-75-72-20-55-48,36-36-37-165,112Zm-250-231l87,74,22,29-41,5,6,45,86,74,48-36,34,31,62-42-115-124-24,2-120-108-45,50Zm101-14l70,59,22-1,121,128,92-62-209-199-31,11-65,64Zm107-85l245,239,44-33-67-184-51,32-112-110-59,56Zm-267,42l52,44,51-54,50,46,67-68,31-10,66-64-79-95-187,143-51,58Zm-78-183l123,111,184-140-65-93,100-73-61-28-127-173L26,1095Zm579,157l92,253,76,75-50,77,65,60,79-82,106,7,70-43-54-70-15,13-86-73-31-89,22-15-81-219-193,106Zm-192-108l131,130,112-64-98-145-86,31-59,48Zm-125-168l118,158,59-53,140-47,26-18-31-51,7-16-27-3-42-22-157-16-93,68Zm30-109l60,26,161,18,49,23,34-112,45-47-16-58-88,70-86-39-159,119Zm-131-182l124,169,156-118-221-205-59,154Zm302,54l71,32,86-64-37-53-120,85Zm-232-214l222,205,218-160-45-79-11-8-20,10-67-64-12-44-85,53-16-12-184,99Zm293-145l12,41,60,59,19-11,14,9,59-47-3-22-69-86-92,57Zm-299,133l187-104,18,12,180-110,1-25,66-43-81-130-267,139-104,261Zm325,546l95,140,122-67-30-80,42-39-101-38-91,70-37,14Zm23-121h20l5,16-11,5,31,50,59-48,107,40,25-82-34-19-61,5-13-88-50-37-44,44-34,114Zm18-290l42,61,17,57,53,38,62-64-4-87-22-45-55-30-93,70Zm374,1000l55,56,36-36,118,118,44-34,101-5,61,22,51-14,9,22,20,5-38-178-118,23-11-91,30.92-47.68-231.92,37.68,13,41-4,14-35,6-101,61Zm-114-263l27,76,69,60,19-15,63,86,32-18,31-4-17-55,106-19-39-167-271,44-20,12Zm-98-331l115,304,272-43-39-182-6-110-21-24-61,41-96,16-109-7-18-29-37,34Zm48-49l19,31,97,5,86-15,69-45,51-60,47-11-34-11-188-152-22,109-101,66-24,83Zm-90-190l11,80,56-6,40,24,98-65,26-124-134-66-33,2,4,85-68,70Zm40-214l23,45,33-3,140,68,49-54-43-42,31-47-122-81-51,37-60,77Zm-112-114l45,76,55,30,59-76,62-48,40,28,94-77-4-48,98-91-80-60-24-5-79-58-50,81v39l-167,107,14,19,3,30-66,53Zm-28-382l87,144-76,49,57,71,160-99,1-34,53-83-61-22-105-85-116,59Zm536,1160l49,229,133-20-25-235-157,26Zm-65-277l26,29,7,116,29,119,160-28v-81l-15-35-3-51,26-130-139-4-44,13-47,52Zm-173-484l92,63-32,48,43,42-56,61-1,17,187,153,59,22,75,3,8-35,101-160,44-3,21,14,38-67-70-62,34-56-68-83-27-45-72-58-41-20-38-1-97-60-105,99,4,48-99,80Zm526,1096l38,185,51,15,51-24,40-46,122-1,50-48,3-29,24-15-38-304-43,5-78,66-88,26,4,73-21,40-115,57Zm-127-61l8,72,110-22,112-55,19-34-9-169-216,35,13,114-37,59Zm12-300l11,113,216-35-4-103h-111l-112,25Zm-21-182l2,51,17,35v81l114-25h111l-11-244-54,3-82-30h-72l-25,129Zm-6-144l105,1,85,31,110-6-9-102,84-106-222-156-13,21,70,62-49,87-26-15-34,1-93,147-8,35Zm264,300l9,203,82-24,72-60-16-58v-78l-147,17Zm159-21v79l14,53,54-5,4,30,28-22-9-22,50-5-23-19-12-102-71,8-6-16-22,3-7,18Zm-160,6l149-18,9-19,41-6,4,15,63-8-13-94-258,17,5,113Zm-12-244l6,114,257-18-5-107-258,11Zm55-115l9,98,193-9-36-77,29-43,50-5-2-41-120-75-123,152Zm232,492l-40,30,35,273,62-25,36-35-7-32-42-28,10-18,52-3,5-22,31-16,9-31-23-59-58-55-16,13-20-14-42,4,8,18Zm31-400l-48,11,6,113,27,220,38,33,27-26,58-46-108-305Zm-64-112l-22,31,35,76,11-3-21-49,31-15,2-21-36-19Zm148,78l-60,29-10,2,3,7,10-2,57-28,46,2,14,43,36,42,8,42h7l-10-46-34-41-18-47-49-3Zm106,165l-47,89-4,46-24,24,4,8,28-26,4-50,48-91h-9Zm70,161l-23,5-26,61-16-2-13-51-66,6-57,45,81,76,27,40,22-6-28-35,27-33,19-1,28,30,7-9-25-24,5-9,29-3,19,23,12,18,36-20-59-47,4-17,12,11,22-14-37-44ZM793,1l-2,16-26,20,99,82,65,23,84,62,28,7,79,58,13-12,102,65,42,3,45,22,71,59,40,62,60,71-14,23,223,154,41-49,137,86,3,45,58-4,1-15-43,4-1-24h47l-2-23-54,1-21-17,56-9-10-17-79,7-16-22,50-5-12-26-74,9-22-22,51-5-39-35-78,2-17-21,50-12-22-24-77,6-9,15,66,42v19h-30l-80-60-27,2-49-39-6-24,13-9c11-20-2-38-21-37l-31,12-69-98-4-20-16,2-171-72,6-10-5-15h-28l-20-17-13-66-99-41-2-20h-16v20l-45-31c-8-9-34-16-39-6l-17,20-33-36-1-11-12,1-28,15-12-14,15-9-5-54-19-1-6,12-8-17-13,1-2,1Zm193,69l-8,7,10,1,14,16,15,2,4-9-28-10-7-7Z"/>
  <g class="cls-3">
    <text class="cls-4" transform="translate(417 856)"><tspan x="0" y="0">Agronomía</tspan></text>
    <text class="cls-4" transform="translate(1164 1093)"><tspan x="0" y="0">Almagro</tspan></text>
    <text class="cls-4" transform="translate(1373 1093)"><tspan x="0" y="0">Balvanera</tspan></text>
    <text class="cls-4" transform="translate(1596 1619)"><tspan x="0" y="0">Barracas</tspan></text>
    <text class="cls-4" transform="translate(808 407)"><tspan x="0" y="0">Belgrano</tspan></text>
    <text class="cls-4" transform="translate(1213 1373)"><tspan x="0" y="0">Boedo</tspan></text>
    <text class="cls-4" transform="translate(920 1177)"><tspan x="0" y="0">Caballito</tspan></text>
    <text class="cls-4" transform="translate(774 822)"><tspan x="0" y="0">Chacarita</tspan></text>
    <text class="cls-4" transform="translate(574 414)"><tspan x="0" y="0">Coghlan</tspan></text>
    <text class="cls-4" transform="translate(814 602)"><tspan x="0" y="0">Colegiales</tspan></text>
    <text class="cls-4" transform="translate(1575 1338)"><tspan x="0" y="0">Constitución</tspan></text>
    <text class="cls-4" transform="translate(710 1414)"><tspan x="0" y="0">Flores</tspan></text>
    <text class="cls-4" transform="translate(497 1356)"><tspan x="0" y="0">Floresta</tspan></text>
    <text class="cls-4" transform="translate(1841 1462)"><tspan x="0" y="0">La Boca</tspan></text>
    <text class="cls-4" transform="translate(628 939)"><tspan x="0" y="0">La Paternal</tspan></text>
    <text class="cls-4" transform="translate(73 1559)"><tspan x="0" y="0">Liniers</tspan></text>
    <text class="cls-4" transform="translate(267 1773)"><tspan x="0" y="0">Mataderos</tspan></text>
    <text class="cls-4" transform="translate(164 1236)"><tspan x="0" y="0">M. Castro</tspan></text>
    <text class="cls-4" transform="translate(1620 1148)"><tspan x="0" y="0">Monserrat</tspan></text>
    <text class="cls-4" transform="translate(1150 1673)"><tspan x="0" y="0">N. Pompeya</tspan></text>
    <text class="cls-4" transform="translate(736 220)"><tspan x="0" y="0">Núñez</tspan></text>
    <text class="cls-4" transform="translate(1130 639)"><tspan x="0" y="0">Palermo</tspan></text>
    <text class="cls-4" transform="translate(501 1607)"><tspan class="cls-5" x="0" y="0">P</tspan><tspan x="17.22" y="0">.</tspan><tspan class="cls-9" x="26.11" y="0"> </tspan><tspan class="cls-1" x="33.23" y="0">A</tspan><tspan x="54" y="0">vellaneda</tspan></text>
    <text class="cls-4" transform="translate(958 1462)"><tspan class="cls-5" x="0" y="0">P</tspan><tspan x="17.22" y="0">. Chacabuco</tspan></text>
    <text class="cls-4" transform="translate(511 741)"><tspan class="cls-5" x="0" y="0">P</tspan><tspan x="17.22" y="0">. Chas</tspan></text>
    <text class="cls-4" transform="translate(1376 1483)"><tspan class="cls-5" x="0" y="0">P</tspan><tspan x="17.22" y="0">. Patricios</tspan></text>
    <text class="cls-4" transform="translate(1858 1153)"><tspan x="0" y="0">Pto. Madero</tspan></text>
    <text class="cls-4" transform="translate(1426 862)"><tspan x="0" y="0">Recoleta</tspan></text>
    <text class="cls-4" transform="translate(1666 858)"><tspan x="0" y="0">Retiro</tspan></text>
    <text class="cls-4" transform="translate(392 322)"><tspan x="0" y="0">Saavedra</tspan></text>
    <text class="cls-4" transform="translate(1360 1299)"><tspan x="0" y="0">San Cristóbal</tspan></text>
    <text class="cls-4" transform="translate(1624 1039)"><tspan x="0" y="0">San Nicolás</tspan></text>
    <text class="cls-4" transform="translate(1730 1277)"><tspan x="0" y="0">San</tspan><tspan class="cls-1" x="56.94" y="0"> </tspan><tspan class="cls-10" x="65.25" y="0">T</tspan><tspan x="81.25" y="0">elmo</tspan></text>
    <text class="cls-4" transform="translate(375 1434)"><tspan x="0" y="0">Vélez Sársfield</tspan></text>
    <text class="cls-4" transform="translate(21 1376)"><tspan class="cls-9" x="0" y="0">V</tspan><tspan x="19.58" y="0">ersalles</tspan></text>
    <text class="cls-4" transform="translate(913 953)"><tspan class="cls-2" x="0" y="0">V</tspan><tspan x="18.41" y="0">. Crespo</tspan></text>
    <text class="cls-4" transform="translate(353 1016)"><tspan class="cls-2" x="0" y="0">V</tspan><tspan x="18.41" y="0">. del Parque</tspan></text>
    <text class="cls-4" transform="translate(96 1016)"><tspan class="cls-2" x="0" y="0">V</tspan><tspan x="18.41" y="0">. Devoto</tspan></text>
    <text class="cls-4" transform="translate(598 1102)"><tspan class="cls-2" x="0" y="0">V</tspan><tspan x="18.41" y="0">. Gral. Mitre</tspan></text>
    <text class="cls-4" transform="translate(507 1993)"><tspan class="cls-2" x="0" y="0">V</tspan><tspan x="18.41" y="0">. Lugano</tspan></text>
    <text class="cls-4" transform="translate(270 1493)"><tspan class="cls-2" x="0" y="0">V</tspan><tspan x="18.41" y="0">. Luro</tspan></text>
    <text class="cls-4" transform="translate(651 700)"><tspan class="cls-2" x="0" y="0">V</tspan><tspan x="18.41" y="0">. Ortúzar</tspan></text>
    <text class="cls-4" transform="translate(227 727)"><tspan class="cls-2" x="0" y="0">V</tspan><tspan x="18.41" y="0">. Pueyrredón</tspan></text>
    <text class="cls-4" transform="translate(5 1224)"><tspan class="cls-2" x="0" y="0">V</tspan><tspan x="18.41" y="0">. Real</tspan></text>
    <text class="cls-4" transform="translate(661 2253)"><tspan class="cls-2" x="0" y="0">V</tspan><tspan x="18.41" y="0">. Riachuelo</tspan></text>
    <text class="cls-4" transform="translate(453 1190)"><tspan class="cls-2" x="0" y="0">V</tspan><tspan x="18.41" y="0">. Santa Rita</tspan></text>
    <text class="cls-4" transform="translate(864 1850)"><tspan class="cls-2" x="0" y="0">V</tspan><tspan x="18.41" y="0">. Soldati</tspan></text>
    <text class="cls-4" transform="translate(398 587)"><tspan class="cls-2" x="0" y="0">V</tspan><tspan x="18.41" y="0">. Urquiza</tspan></text>
  </g>
  <g>
    <circle class="cls-7" cx="546.76" cy="1274" r="54.26"/>
    <g>
      <path class="cls-6" d="m572.79,1282.9h.11v23.85h-18.65v-15.49c0-2.07-.84-3.94-2.19-5.29s-3.22-2.19-5.29-2.19c-4.13,0-7.48,3.35-7.48,7.48v15.49h-18.66v-23.85h.1l-.1-.02,26.14-22.75,26.14,22.75-.11.02Z"/>
      <polygon class="cls-6" points="581.04 1284.37 546.76 1254.53 512.47 1284.37 509.88 1281.39 546.76 1249.29 583.64 1281.39 581.04 1284.37"/>
      <g>
        <rect class="cls-6" x="545.65" y="1238.28" width="2.22" height="13.61"/>
        <rect class="cls-6" x="545.65" y="1236.2" width="2.22" height="15.69"/>
        <rect class="cls-6" x="541.86" y="1240.31" width="9.81" height="2.22"/>
      </g>
    </g>
  </g>
  <g>
    <circle class="cls-7" cx="958.12" cy="301.96" r="54.26"/>
    <g>
      <path class="cls-6" d="m992.4,302.61c-.54-.35-1.08-.7-1.65-1-4.74-2.47-9.58-4.34-15-2.21-.47.18-.78.1-1.04-.33-.19-.32-.43-.62-.66-.92-2.09-2.76-4.43-5.3-7.08-7.96.95,0,1.65.03,2.35,0,2.05-.1,3.84-1.43,4.26-3.15.57-2.3-.64-4.3-3.19-5.23-.71-.26-1.45-.42-2.14-.69-.69-.28-1.46-.61-1.24-1.61.22-.98.97-1.16,1.82-1.15.79.02,1.59.09,2.37.03,1.99-.18,3.8-1.65,4.17-3.31.43-1.93-.43-3.62-2.47-4.73-.56-.31-1.17-.51-1.78-.71-.88-.28-1.51.11-1.77.95-.27.87-.02,1.56.97,1.83.36.1.73.2,1.06.38.59.32,1.27.63,1.05,1.52-.21.85-.85,1.12-1.61,1.14-.83.03-1.67-.07-2.5.02-1.8.21-3.42.83-4.13,2.69-.62,1.63-.26,3.13.98,4.36.93.93,2.06,1.51,3.36,1.76.4.08.82.16,1.19.32.63.29,1.03.79.96,1.52-.07.76-.72.93-1.28,1.1-.34.11-.75.05-1.13.03-1.18-.08-2.35-.09-3.42.48-.39.21-.63.04-.9-.19-1.77-1.47-3.6-2.87-5.6-4.03-.57-.32-.68-.59-.36-1.23,1.02-1.98,1.9-4.04,1.96-6.32.13-4.73-2.48-7.91-6.06-10.5-.72-.52-1.43-.32-1.97.41-.62.83-.49,1.54.49,2.31,1.57,1.23,2.97,2.6,3.73,4.48,1.18,2.92.37,5.6-1.03,8.22-.34.64-.64.69-1.22.41-.93-.44-1.93-.64-2.94-.8-1.43-.23-2.65.38-3.1,1.47-1.09,2.65-2.16,5.31-3.29,7.94-5.23,12.2-10.48,24.4-15.73,36.6-.67,1.56-.64,3.04.48,4.34,1.06,1.23,2.77,1.48,4.49.74,8.86-3.84,17.71-7.71,26.57-11.56,5.5-2.39,10.99-4.81,16.51-7.15,2.03-.86,2.66-1.73,2.44-3.93-.19-2.03-.93-3.88-1.93-5.63-.34-.61-.31-.93.44-1.11,1.15-.28,2.3-.57,3.47-.38,2.51.41,4.93,1.1,7.17,2.36.78.44,1.54.95,2.35,1.35.95.46,1.93.13,2.34-.68.39-.8.11-1.68-.76-2.23Zm-17.07,6.93c-3.1-1.1-5.87-2.76-8.43-4.78-5.76-4.55-10.88-9.69-14.56-16.12-.71-1.25-1.28-2.56-1.63-3.96-.24-.98-.03-1.19.92-.94.95.26,1.9.48,2.51,1.37.16.23.47.44.74.47,3.02.37,4.85,2.71,7.13,4.31.51.36.12.92.21,1.32-.03,2.89,2.79,5.3,5.51,4.73.43-.09.64.05.86.32,1.13,1.37,2.24,2.75,3.37,4.11.42.51.31.82-.26,1.13-.69.38-1.33.86-1.98,1.32-.84.59-.92,1.33-.37,2.16.55.82,1.45,1.05,2.26.54.67-.42,1.32-.88,1.96-1.34.39-.28.67-.38.97.16.77,1.4,1.41,2.84,1.73,4.4.16.78,0,1.13-.94.8Z"/>
      <path class="cls-6" d="m983.8,285.55c0,1.61-1.11,2.77-2.63,2.8-1.53.03-2.81-1.25-2.79-2.81.01-1.51,1.23-2.77,2.69-2.8,1.58-.03,2.75,1.16,2.74,2.81Z"/>
      <path class="cls-6" d="m956.15,326.82c.01,1.65-1.01,2.68-2.66,2.69-1.69,0-2.74-1.07-2.72-2.76.02-1.63,1.03-2.61,2.74-2.64,1.58-.03,2.63,1.05,2.64,2.71Z"/>
      <path class="cls-6" d="m935.97,287.91c-1.38,0-2.34-.96-2.35-2.33,0-1.39.93-2.38,2.29-2.41,1.33-.03,2.47,1.1,2.45,2.42-.03,1.34-1.04,2.33-2.39,2.32Z"/>
      <path class="cls-6" d="m981.02,321.03c1.29-.02,2.06.72,2.09,1.98.02,1.26-.75,2.11-1.96,2.14-1.29.03-2.17-.8-2.18-2.06,0-1.22.82-2.05,2.05-2.06Z"/>
      <path class="cls-6" d="m995.14,292.85c-.02,1.22-.86,2.08-2.05,2.09-1.21,0-2.11-.93-2.08-2.17.03-1.19.94-2.07,2.11-2.03,1.18.03,2.04.94,2.02,2.12Z"/>
      <path class="cls-6" d="m984.64,273.86c-.98.02-1.35-.48-1.33-1.4.02-.91.52-1.31,1.34-1.29.85.02,1.44.43,1.42,1.38-.02.93-.54,1.34-1.43,1.32Z"/>
      <path class="cls-6" d="m933.49,265.7c.76.09,1.23.52,1.24,1.37.01.86-.54,1.22-1.28,1.24-.83.02-1.35-.42-1.36-1.29,0-.87.49-1.28,1.4-1.33Z"/>
    </g>
  </g>
</svg>